<svg xmlns="http://www.w3.org/2000/svg" xmlns:xlink="http://www.w3.org/1999/xlink" width="200" zoomAndPan="magnify" viewBox="0 0 150 60" height="80" preserveAspectRatio="xMidYMid meet" version="1.0"><defs><g/></defs><g fill="#000000" fill-opacity="1"><g transform="translate(0, 37.020372)"><g><path d="M 10 0.328125 C 8.4375 0.328125 7.046875 0.132812 5.828125 -0.25 C 4.609375 -0.632812 3.59375 -1.140625 2.78125 -1.765625 C 1.96875 -2.398438 1.34375 -3.09375 0.90625 -3.84375 L 3.359375 -6.84375 L 3.75 -6.84375 C 4.425781 -5.832031 5.285156 -5.023438 6.328125 -4.421875 C 7.378906 -3.828125 8.601562 -3.53125 10 -3.53125 C 11.195312 -3.53125 12.097656 -3.78125 12.703125 -4.28125 C 13.304688 -4.789062 13.609375 -5.488281 13.609375 -6.375 C 13.609375 -6.90625 13.507812 -7.347656 13.3125 -7.703125 C 13.125 -8.066406 12.800781 -8.378906 12.34375 -8.640625 C 11.894531 -8.898438 11.285156 -9.125 10.515625 -9.3125 L 7.609375 -9.96875 C 5.578125 -10.4375 4.066406 -11.207031 3.078125 -12.28125 C 2.085938 -13.351562 1.59375 -14.75 1.59375 -16.46875 C 1.59375 -17.738281 1.910156 -18.859375 2.546875 -19.828125 C 3.179688 -20.796875 4.109375 -21.546875 5.328125 -22.078125 C 6.546875 -22.617188 8.003906 -22.890625 9.703125 -22.890625 C 11.441406 -22.890625 12.929688 -22.660156 14.171875 -22.203125 C 15.410156 -21.742188 16.457031 -21.039062 17.3125 -20.09375 L 15.109375 -17.0625 L 14.71875 -17.0625 C 14.082031 -17.738281 13.351562 -18.242188 12.53125 -18.578125 C 11.707031 -18.910156 10.765625 -19.078125 9.703125 -19.078125 C 8.484375 -19.078125 7.550781 -18.859375 6.90625 -18.421875 C 6.269531 -17.992188 5.953125 -17.398438 5.953125 -16.640625 C 5.953125 -15.929688 6.175781 -15.363281 6.625 -14.9375 C 7.070312 -14.519531 7.847656 -14.191406 8.953125 -13.953125 L 11.921875 -13.328125 C 14.109375 -12.867188 15.695312 -12.085938 16.6875 -10.984375 C 17.675781 -9.878906 18.171875 -8.4375 18.171875 -6.65625 C 18.171875 -5.238281 17.863281 -4.007812 17.25 -2.96875 C 16.644531 -1.925781 15.726562 -1.113281 14.5 -0.53125 C 13.28125 0.0390625 11.78125 0.328125 10 0.328125 Z M 10 0.328125 "/></g></g></g><g fill="#000000" fill-opacity="1"><g transform="translate(19.382977, 37.020372)"><g><path d="M 16.828125 -7.546875 L 5.875 -7.546875 C 6 -6.066406 6.421875 -4.988281 7.140625 -4.3125 C 7.859375 -3.632812 8.84375 -3.296875 10.09375 -3.296875 C 11.070312 -3.296875 11.863281 -3.476562 12.46875 -3.84375 C 13.070312 -4.21875 13.5625 -4.773438 13.9375 -5.515625 L 14.265625 -5.515625 L 17.09375 -3.6875 C 16.539062 -2.488281 15.703125 -1.519531 14.578125 -0.78125 C 13.460938 -0.0390625 11.96875 0.328125 10.09375 0.328125 C 8.332031 0.328125 6.8125 -0.00390625 5.53125 -0.671875 C 4.25 -1.347656 3.257812 -2.347656 2.5625 -3.671875 C 1.875 -4.992188 1.53125 -6.601562 1.53125 -8.5 C 1.53125 -10.4375 1.894531 -12.066406 2.625 -13.390625 C 3.351562 -14.722656 4.335938 -15.710938 5.578125 -16.359375 C 6.828125 -17.015625 8.226562 -17.34375 9.78125 -17.34375 C 12.1875 -17.34375 14.03125 -16.703125 15.3125 -15.421875 C 16.59375 -14.148438 17.234375 -12.28125 17.234375 -9.8125 C 17.234375 -8.914062 17.203125 -8.222656 17.140625 -7.734375 Z M 13.15625 -10.3125 C 13.113281 -11.601562 12.8125 -12.546875 12.25 -13.140625 C 11.6875 -13.734375 10.863281 -14.03125 9.78125 -14.03125 C 7.625 -14.03125 6.351562 -12.789062 5.96875 -10.3125 Z M 13.15625 -10.3125 "/></g></g></g><g fill="#000000" fill-opacity="1"><g transform="translate(37.886312, 37.020372)"><g><path d="M 7.0625 0.328125 C 5.53125 0.328125 4.359375 -0.0820312 3.546875 -0.90625 C 2.742188 -1.738281 2.34375 -3 2.34375 -4.6875 L 2.34375 -23.859375 L 6.625 -23.859375 L 6.625 -4.859375 C 6.625 -3.816406 7.054688 -3.296875 7.921875 -3.296875 C 8.160156 -3.296875 8.421875 -3.335938 8.703125 -3.421875 L 8.921875 -3.359375 L 9.3125 -0.078125 C 9.070312 0.046875 8.753906 0.144531 8.359375 0.21875 C 7.972656 0.289062 7.539062 0.328125 7.0625 0.328125 Z M 7.0625 0.328125 "/></g></g></g><g fill="#000000" fill-opacity="1"><g transform="translate(47.670395, 37.020372)"><g><path d="M 7.0625 0.328125 C 5.53125 0.328125 4.359375 -0.0820312 3.546875 -0.90625 C 2.742188 -1.738281 2.34375 -3 2.34375 -4.6875 L 2.34375 -23.859375 L 6.625 -23.859375 L 6.625 -4.859375 C 6.625 -3.816406 7.054688 -3.296875 7.921875 -3.296875 C 8.160156 -3.296875 8.421875 -3.335938 8.703125 -3.421875 L 8.921875 -3.359375 L 9.3125 -0.078125 C 9.070312 0.046875 8.753906 0.144531 8.359375 0.21875 C 7.972656 0.289062 7.539062 0.328125 7.0625 0.328125 Z M 7.0625 0.328125 "/></g></g></g><g fill="#000000" fill-opacity="1"><g transform="translate(57.454477, 37.020372)"><g><path d="M 16.828125 -7.546875 L 5.875 -7.546875 C 6 -6.066406 6.421875 -4.988281 7.140625 -4.3125 C 7.859375 -3.632812 8.84375 -3.296875 10.09375 -3.296875 C 11.070312 -3.296875 11.863281 -3.476562 12.46875 -3.84375 C 13.070312 -4.21875 13.5625 -4.773438 13.9375 -5.515625 L 14.265625 -5.515625 L 17.09375 -3.6875 C 16.539062 -2.488281 15.703125 -1.519531 14.578125 -0.78125 C 13.460938 -0.0390625 11.96875 0.328125 10.09375 0.328125 C 8.332031 0.328125 6.8125 -0.00390625 5.53125 -0.671875 C 4.25 -1.347656 3.257812 -2.347656 2.5625 -3.671875 C 1.875 -4.992188 1.53125 -6.601562 1.53125 -8.5 C 1.53125 -10.4375 1.894531 -12.066406 2.625 -13.390625 C 3.351562 -14.722656 4.335938 -15.710938 5.578125 -16.359375 C 6.828125 -17.015625 8.226562 -17.34375 9.78125 -17.34375 C 12.1875 -17.34375 14.03125 -16.703125 15.3125 -15.421875 C 16.59375 -14.148438 17.234375 -12.28125 17.234375 -9.8125 C 17.234375 -8.914062 17.203125 -8.222656 17.140625 -7.734375 Z M 13.15625 -10.3125 C 13.113281 -11.601562 12.8125 -12.546875 12.25 -13.140625 C 11.6875 -13.734375 10.863281 -14.03125 9.78125 -14.03125 C 7.625 -14.03125 6.351562 -12.789062 5.96875 -10.3125 Z M 13.15625 -10.3125 "/></g></g></g><g fill="#000000" fill-opacity="1"><g transform="translate(75.957812, 37.020372)"><g><path d="M 2.453125 0 L 2.453125 -17.03125 L 6.609375 -17.03125 L 6.609375 -14.5 L 6.9375 -14.4375 C 7.34375 -15.375 7.878906 -16.0625 8.546875 -16.5 C 9.210938 -16.945312 10.023438 -17.171875 10.984375 -17.171875 C 11.953125 -17.171875 12.691406 -17.007812 13.203125 -16.6875 L 12.46875 -13 L 12.140625 -12.9375 C 11.867188 -13.050781 11.601562 -13.132812 11.34375 -13.1875 C 11.082031 -13.238281 10.769531 -13.265625 10.40625 -13.265625 C 9.207031 -13.265625 8.296875 -12.84375 7.671875 -12 C 7.046875 -11.164062 6.734375 -9.820312 6.734375 -7.96875 L 6.734375 0 Z M 2.453125 0 "/></g></g></g><g fill="#0097b2" fill-opacity="1"><g transform="translate(89.347717, 35.122512)"><g><path d="M 2.84375 5.4375 C 2.289062 5.4375 1.789062 5.394531 1.34375 5.3125 C 0.894531 5.226562 0.53125 5.113281 0.25 4.96875 L 0.765625 2.375 L 0.984375 2.296875 C 1.171875 2.398438 1.40625 2.484375 1.6875 2.546875 C 1.976562 2.609375 2.273438 2.640625 2.578125 2.640625 C 3.097656 2.640625 3.53125 2.570312 3.875 2.4375 C 4.21875 2.300781 4.507812 2.078125 4.75 1.765625 C 4.988281 1.453125 5.203125 1.015625 5.390625 0.453125 L 0.28125 -12.828125 L 3.65625 -12.828125 L 6.84375 -3.90625 L 7.109375 -3.90625 L 10.21875 -12.828125 L 13.5 -12.828125 L 8.34375 0.796875 C 7.9375 1.898438 7.484375 2.785156 6.984375 3.453125 C 6.492188 4.128906 5.914062 4.628906 5.25 4.953125 C 4.582031 5.273438 3.78125 5.4375 2.84375 5.4375 Z M 2.84375 5.4375 "/></g></g><g transform="translate(103.114318, 35.122512)"><g><path d="M 5 0.25 C 4.175781 0.25 3.460938 0.0976562 2.859375 -0.203125 C 2.253906 -0.503906 1.789062 -0.945312 1.46875 -1.53125 C 1.144531 -2.125 0.984375 -2.832031 0.984375 -3.65625 C 0.984375 -4.414062 1.144531 -5.050781 1.46875 -5.5625 C 1.789062 -6.082031 2.289062 -6.503906 2.96875 -6.828125 C 3.65625 -7.160156 4.550781 -7.414062 5.65625 -7.59375 C 6.414062 -7.71875 6.992188 -7.851562 7.390625 -8 C 7.796875 -8.144531 8.066406 -8.3125 8.203125 -8.5 C 8.347656 -8.6875 8.421875 -8.921875 8.421875 -9.203125 C 8.421875 -9.617188 8.273438 -9.929688 7.984375 -10.140625 C 7.703125 -10.359375 7.226562 -10.46875 6.5625 -10.46875 C 5.84375 -10.46875 5.160156 -10.304688 4.515625 -9.984375 C 3.878906 -9.671875 3.320312 -9.257812 2.84375 -8.75 L 2.609375 -8.75 L 1.265625 -10.78125 C 1.921875 -11.5 2.71875 -12.054688 3.65625 -12.453125 C 4.59375 -12.859375 5.613281 -13.0625 6.71875 -13.0625 C 8.414062 -13.0625 9.644531 -12.703125 10.40625 -11.984375 C 11.164062 -11.265625 11.546875 -10.242188 11.546875 -8.921875 L 11.546875 -3.34375 C 11.546875 -2.769531 11.796875 -2.484375 12.296875 -2.484375 C 12.492188 -2.484375 12.6875 -2.519531 12.875 -2.59375 L 13.03125 -2.546875 L 13.265625 -0.296875 C 13.085938 -0.179688 12.835938 -0.0859375 12.515625 -0.015625 C 12.203125 0.0546875 11.851562 0.09375 11.46875 0.09375 C 10.707031 0.09375 10.109375 -0.0507812 9.671875 -0.34375 C 9.242188 -0.644531 8.9375 -1.109375 8.75 -1.734375 L 8.515625 -1.75 C 7.878906 -0.414062 6.707031 0.25 5 0.25 Z M 6.015625 -2.15625 C 6.765625 -2.15625 7.359375 -2.40625 7.796875 -2.90625 C 8.242188 -3.40625 8.46875 -4.101562 8.46875 -5 L 8.46875 -6.296875 L 8.25 -6.34375 C 8.0625 -6.1875 7.804688 -6.054688 7.484375 -5.953125 C 7.171875 -5.847656 6.722656 -5.75 6.140625 -5.65625 C 5.441406 -5.53125 4.9375 -5.328125 4.625 -5.046875 C 4.320312 -4.765625 4.171875 -4.363281 4.171875 -3.84375 C 4.171875 -3.289062 4.332031 -2.867188 4.65625 -2.578125 C 4.988281 -2.296875 5.441406 -2.15625 6.015625 -2.15625 Z M 6.015625 -2.15625 "/></g></g><g transform="translate(116.636748, 35.122512)"><g><path d="M 5 0.25 C 4.175781 0.25 3.460938 0.0976562 2.859375 -0.203125 C 2.253906 -0.503906 1.789062 -0.945312 1.46875 -1.53125 C 1.144531 -2.125 0.984375 -2.832031 0.984375 -3.65625 C 0.984375 -4.414062 1.144531 -5.050781 1.46875 -5.5625 C 1.789062 -6.082031 2.289062 -6.503906 2.96875 -6.828125 C 3.65625 -7.160156 4.550781 -7.414062 5.65625 -7.59375 C 6.414062 -7.71875 6.992188 -7.851562 7.390625 -8 C 7.796875 -8.144531 8.066406 -8.3125 8.203125 -8.5 C 8.347656 -8.6875 8.421875 -8.921875 8.421875 -9.203125 C 8.421875 -9.617188 8.273438 -9.929688 7.984375 -10.140625 C 7.703125 -10.359375 7.226562 -10.46875 6.5625 -10.46875 C 5.84375 -10.46875 5.160156 -10.304688 4.515625 -9.984375 C 3.878906 -9.671875 3.320312 -9.257812 2.84375 -8.75 L 2.609375 -8.75 L 1.265625 -10.78125 C 1.921875 -11.5 2.71875 -12.054688 3.65625 -12.453125 C 4.59375 -12.859375 5.613281 -13.0625 6.71875 -13.0625 C 8.414062 -13.0625 9.644531 -12.703125 10.40625 -11.984375 C 11.164062 -11.265625 11.546875 -10.242188 11.546875 -8.921875 L 11.546875 -3.34375 C 11.546875 -2.769531 11.796875 -2.484375 12.296875 -2.484375 C 12.492188 -2.484375 12.6875 -2.519531 12.875 -2.59375 L 13.03125 -2.546875 L 13.265625 -0.296875 C 13.085938 -0.179688 12.835938 -0.0859375 12.515625 -0.015625 C 12.203125 0.0546875 11.851562 0.09375 11.46875 0.09375 C 10.707031 0.09375 10.109375 -0.0507812 9.671875 -0.34375 C 9.242188 -0.644531 8.9375 -1.109375 8.75 -1.734375 L 8.515625 -1.75 C 7.878906 -0.414062 6.707031 0.25 5 0.25 Z M 6.015625 -2.15625 C 6.765625 -2.15625 7.359375 -2.40625 7.796875 -2.90625 C 8.242188 -3.40625 8.46875 -4.101562 8.46875 -5 L 8.46875 -6.296875 L 8.25 -6.34375 C 8.0625 -6.1875 7.804688 -6.054688 7.484375 -5.953125 C 7.171875 -5.847656 6.722656 -5.75 6.140625 -5.65625 C 5.441406 -5.53125 4.9375 -5.328125 4.625 -5.046875 C 4.320312 -4.765625 4.171875 -4.363281 4.171875 -3.84375 C 4.171875 -3.289062 4.332031 -2.867188 4.65625 -2.578125 C 4.988281 -2.296875 5.441406 -2.15625 6.015625 -2.15625 Z M 6.015625 -2.15625 "/></g></g><g transform="translate(130.159178, 35.122512)"><g><path d="M 1.84375 0 L 1.84375 -12.828125 L 4.96875 -12.828125 L 4.96875 -10.921875 L 5.21875 -10.875 C 5.53125 -11.582031 5.9375 -12.101562 6.4375 -12.4375 C 6.945312 -12.769531 7.5625 -12.9375 8.28125 -12.9375 C 9.007812 -12.9375 9.5625 -12.8125 9.9375 -12.5625 L 9.390625 -9.796875 L 9.15625 -9.75 C 8.945312 -9.832031 8.742188 -9.890625 8.546875 -9.921875 C 8.347656 -9.960938 8.113281 -9.984375 7.84375 -9.984375 C 6.9375 -9.984375 6.242188 -9.664062 5.765625 -9.03125 C 5.296875 -8.40625 5.0625 -7.394531 5.0625 -6 L 5.0625 0 Z M 1.84375 0 "/></g></g><g transform="translate(140.216703, 35.122512)"><g><path d="M 3.453125 -14.359375 C 2.867188 -14.359375 2.394531 -14.535156 2.03125 -14.890625 C 1.664062 -15.242188 1.484375 -15.695312 1.484375 -16.25 C 1.484375 -16.800781 1.664062 -17.253906 2.03125 -17.609375 C 2.394531 -17.960938 2.867188 -18.140625 3.453125 -18.140625 C 3.835938 -18.140625 4.179688 -18.054688 4.484375 -17.890625 C 4.785156 -17.734375 5.019531 -17.507812 5.1875 -17.21875 C 5.351562 -16.9375 5.4375 -16.613281 5.4375 -16.25 C 5.4375 -15.882812 5.351562 -15.554688 5.1875 -15.265625 C 5.019531 -14.984375 4.785156 -14.757812 4.484375 -14.59375 C 4.179688 -14.4375 3.835938 -14.359375 3.453125 -14.359375 Z M 1.84375 0 L 1.84375 -12.828125 L 5.0625 -12.828125 L 5.0625 0 Z M 1.84375 0 "/></g></g></g></svg>